<?xml version="1.0" encoding="iso-8859-1"?>
<!-- Generator: Adobe Illustrator 19.0.0, SVG Export Plug-In . SVG Version: 6.00 Build 0)  -->
<svg xmlns="http://www.w3.org/2000/svg" xmlns:xlink="http://www.w3.org/1999/xlink" version="1.1" id="Capa_1" x="0px" y="0px" viewBox="0 0 480 480" style="enable-background:new 0 0 480 480;" xml:space="preserve" width="512px" height="512px">
<g>
	<g>
		<path d="M440,0H280c-22.08,0.026-39.974,17.92-40,40v112c0.026,22.08,17.92,39.974,40,40h32v40c0,4.418,3.582,8,8,8    c1.731,0,3.415-0.561,4.8-1.6l61.864-46.4H440c22.08-0.026,39.974-17.92,40-40V40C479.974,17.92,462.08,0.026,440,0z M464,152    c0,13.255-10.745,24-24,24h-56c-1.731,0-3.415,0.561-4.8,1.6L328,216v-32c0-4.418-3.582-8-8-8h-40c-13.255,0-24-10.745-24-24V40    c0-13.255,10.745-24,24-24h160c13.255,0,24,10.745,24,24V152z" fill="#FFFFFF"/>
	</g>
</g>
<g>
	<g>
		<path d="M408,256h-67.504c-11.014-0.003-20.615,7.492-23.288,18.176l-4.896,19.608l-9.6,31.92l-5.448,18.144l-9.336-43.584    c-5.628-25.753-28.376-44.149-54.736-44.264H184v-36.392c19.904-13.322,31.894-35.657,32-59.608v-48    c-0.044-39.746-32.254-71.956-72-72H72c-4.418,0-8,3.582-8,8c0.061,12.919,5.327,25.269,14.608,34.256    C74.301,91.583,72.047,101.727,72,112v48c0.106,23.951,12.096,46.286,32,59.608V256H56c-30.911,0.04-55.96,25.089-56,56v160    c0,4.418,3.582,8,8,8h224c4.418,0,8-3.582,8-8v-90.952l7.768,29.112c7.268,27.199,35.209,43.356,62.408,36.088    c16.547-4.422,29.768-16.858,35.192-33.104l27.528-82.6l9.048-27.128C401.478,300.501,415.951,283.75,416,264    C416,259.582,412.418,256,408,256z M194.208,272L176,303.872L157.792,272H194.208z M152,294.12L166.784,320L152,345.872V294.12z     M120,256v-28.16c1.496,0.536,3.032,0.976,4.56,1.408c0.36,0.104,0.712,0.232,1.08,0.328c2.525,0.654,5.083,1.17,7.664,1.544    c0.952,0.144,1.904,0.256,2.856,0.36c2.016,0.219,4.037,0.352,6.064,0.4c0.6,0,1.184,0.12,1.776,0.12s1.176-0.104,1.776-0.12    c2.024-0.048,4.048-0.184,6.056-0.4c0.96-0.104,1.912-0.216,2.864-0.36c2.594-0.365,5.166-0.872,7.704-1.52    c0.368-0.096,0.72-0.224,1.08-0.328c1.528-0.432,3.064-0.872,4.56-1.408V256H120z M144,56c25.989,0.03,48.553,17.907,54.528,43.2    l-16.872-16.864C180.155,80.839,178.12,79.998,176,80h-64c-14.542-0.144-27.209-9.955-30.984-24H144z M88,160v-48    c0.005-7.015,1.332-13.965,3.912-20.488c1.656,0.773,3.355,1.451,5.088,2.032c0.32,0.104,0.648,0.168,0.968,0.272    c1.838,0.566,3.708,1.02,5.6,1.36c0.592,0.104,1.176,0.208,1.768,0.296c2.206,0.332,4.433,0.508,6.664,0.528h60.688L200,123.312    V160c0,30.928-25.072,56-56,56C113.072,216,88,190.928,88,160z M112,272h18.208L112,303.872L93.792,272H112z M136,294.12v51.752    L121.216,320L136,294.12z M330.232,408.08c-6.109,18.33-25.921,28.237-44.251,22.127c-11.164-3.721-19.709-12.805-22.741-24.175    l-23.512-88.096c-1.142-4.268-5.528-6.802-9.796-5.66c-3.497,0.936-5.93,4.104-5.932,7.724v144H64V344H48v120H16V312    c0.026-22.08,17.92-39.974,40-40h19.36l29.696,52l32,56c2.194,3.835,7.081,5.165,10.917,2.971    c1.238-0.708,2.263-1.734,2.971-2.971l32-56l29.696-52h20.552c18.838,0.075,35.098,13.22,39.12,31.624l15.864,74.056    c0.764,3.573,3.853,6.174,7.504,6.32c3.684,0.251,7.032-2.133,8-5.696L316.352,336h37.88L330.232,408.08z M359.568,320h-38.4    l4.784-16h38.944L359.568,320z M376,288h-45.76l2.488-9.936c0.889-3.565,4.093-6.067,7.768-6.064h58.136    C395.229,281.582,386.168,287.988,376,288z" fill="#FFFFFF"/>
	</g>
</g>
<g>
	<g>
		<path d="M398.664,104.094c-1.045-2.989-2.674-5.74-4.792-8.094c8.825-9.807,8.029-24.911-1.778-33.736    c-2.354-2.118-5.105-3.747-8.094-4.792V40h-16v16h-16V40h-16v16h-8c-4.418,0-8,3.582-8,8v64c0,4.418,3.582,8,8,8h8v16h16v-16h16    v16h16v-17.472C396.454,130.173,403.019,116.547,398.664,104.094z M376,120h-40v-16h40c4.418,0,8,3.582,8,8S380.418,120,376,120z     M376,88h-40V72h40c4.418,0,8,3.582,8,8S380.418,88,376,88z" fill="#FFFFFF"/>
	</g>
</g>
<g>
	<g>
		<rect x="104" y="128" width="16" height="16" fill="#FFFFFF"/>
	</g>
</g>
<g>
	<g>
		<rect x="168" y="128" width="16" height="16" fill="#FFFFFF"/>
	</g>
</g>
<g>
	<g>
		<rect x="136" y="128" width="16" height="40" fill="#FFFFFF"/>
	</g>
</g>
<g>
</g>
<g>
</g>
<g>
</g>
<g>
</g>
<g>
</g>
<g>
</g>
<g>
</g>
<g>
</g>
<g>
</g>
<g>
</g>
<g>
</g>
<g>
</g>
<g>
</g>
<g>
</g>
<g>
</g>
</svg>
